<?xml version="1.0" encoding="utf-8"?>
<!-- Generator: Adobe Illustrator 23.0.0, SVG Export Plug-In . SVG Version: 6.00 Build 0)  -->
<svg version="1.1" id="Layer_1" xmlns="http://www.w3.org/2000/svg" xmlns:xlink="http://www.w3.org/1999/xlink" x="0px" y="0px"
	 viewBox="0 0 1600 840" style="enable-background:new 0 0 1600 840;" xml:space="preserve">
<style type="text/css">
	.st0{fill:#FFFFFF;}
	.st1{fill:#FFFFFF;stroke:#000000;}
</style>
<g>
	<rect id="canvas_background" x="74.7" y="94" class="st0" width="917.8" height="460.4"/>
</g>
<g>
	<title>Layer 1</title>
	<path id="svg_12" d="M1-1V768l1599.7-116.1l-0.3-651.5L1-1z"/>
	<g id="svg_9">
		<g id="svg_5" transform="matrix(0.42839717683474104,0,0,0.42839717683474104,-36.53697037030645,-531.3154002437344) ">
			<path id="svg_6" class="st1" d="M3452.6,2191.9c66.3-77.7,106.6-178.2,106.6-288.6c0-88.3-25.7-170.8-70.3-239.8
				c8.8,21.5,13.3,45.9,13.3,73.2c0,28.6-2.4,63.1-7.4,102.9L3452.6,2191.9L3452.6,2191.9z"/>
			<path id="svg_7" class="st1" d="M2968,2022.7l56.2-457.5h135l-6.1,53.3c53.6-35.5,107.7-53.3,162.6-53.3
				c50.9,0,92.6,12.5,125.5,37.1c-81.2-87.8-197.1-142.7-326-142.7c-245.3,0-444,198.7-444,444c0,41.6,5.8,82,16.4,120.2
				L2968,2022.7L2968,2022.7z"/>
			<path id="svg_8" class="st1" d="M3361.6,1805.2c1.6-12.5,2.7-23.9,3.4-33.4c0.5-9.8,0.8-18.6,0.8-26.3c0-52-28.1-78-84.6-78
				c-34.7,0-64.7,10.6-89.4,31.6c-20.4,16.7-35.5,36.9-45.4,61c-5.3,12.2-9.8,27.1-13.5,44.8c-3.7,17.8-6.9,38.2-9.8,61.3
				l-34.2,276.6h-135.5h-212.2c78.8,123.1,217,204.8,374,204.8c67.1,0,131-14.9,188.1-41.6L3361.6,1805.2L3361.6,1805.2z"/>
		</g>
	</g>
</g>
</svg>
